<?xml version="1.0"?>
    
<!--********* Copyright (c) 2024 Pareto Softare, LLC DBA Simplemaps.com ***************************************
************* Free for Commercial Use, full terms at  https://simplemaps.com/resources/svg-license ************
************* Attribution is appreciated! https://simplemaps.com *******************************************-->

<svg baseprofile="tiny" fill="#6f9c76" height="959" stroke="#ffffff" stroke-linecap="round" stroke-linejoin="round" stroke-width=".5" version="1.2" viewbox="0 0 1000 959" width="1000" xmlns="http://www.w3.org/2000/svg">
 <g id="features">
  <path d="M852.2 210.8l0.1-0.7 1.4-3.2 0.2-2.2-0.3-2.3-1-2.2-1.3-1.9-2.6-2.7-1.2-0.6-0.1 0-0.9 0.3-2 1.8-1.1 0.6-2.2 0.5-1.3 0.5-1.7 0.2-2.7 0-3.4-1-3.8-1.6-7.7-4.6-1.5-1.5-1.2-2.2-2.2-5-1.4-2.4-1.6-1.7-1.8-1-1.4-0.2-2.9 0.8-3.4 1.2-4.6 0.5-0.1 0-5.1-0.8-0.1 0-2.1 0-0.7-0.1 0-0.4-0.1-0.1-0.2-0.3-0.8-0.7-0.2-0.3 0-0.3 0.1-0.3 0-0.2-0.1-0.2-0.1 0-0.1-0.1-1.1 0-1.5-0.1-0.8-0.1-0.1 0-0.2-0.1-0.4-0.2-0.9-1-0.1-0.1-0.2-0.2-0.1-0.2-0.2-0.2-0.2 0-0.1-0.1-0.9 0.1-0.5 0.1-0.4 0.2-0.1 0-0.1 0-0.2-0.1-0.3-0.1-1.4-1.8-0.5-0.2-0.2-0.1-0.7-0.2 0-0.1-0.6 0-1 0.3-0.3 0.1-0.1-0.1-0.2-0.1-1.1-1.2-1-0.5-0.5-0.2-0.2-0.1-0.1 0-0.4-0.1-1.4 0-0.1 0.1-0.2 0-0.2 0.2-1.2 1.2-0.2 0.2-0.2 0.1-0.1 0-0.2 0-0.1 0-0.2-0.2-0.3-0.3-0.4-0.6 0-0.3 0-0.3 0.2-0.4 0.1-1 0-0.3-0.1-0.4-1.7-2.9 0-0.2-0.1-0.3 0.1-0.3 0.2-1.9-0.1-0.2 0-0.4 0-0.2 0.1-0.2 0.1-0.4 1.3-2.2 0.3-0.7 0.1-0.3 0.1-0.2 0.1-0.1 0.9-0.7 1.4-0.8 0.5-0.2 0.2-0.2 0.2-0.2 0-0.2 0-0.2-0.1-0.2-0.1-0.3-0.1-2.9-0.1-0.2-0.3-1.1-0.8-0.4-7.2-1.1-3.5 0.1-3.5 0.6 0-0.1-0.1 0-2.1-1.6-0.1 0-1.2-0.3-1.8 1-0.1-0.1-0.7-1.4 0-0.4-0.2-0.3-0.2-0.3-0.3-0.3-0.1 0-0.4-0.3-0.5-0.2-0.6-0.1-0.3 0-1.1 0.1-0.3 0-0.8-0.2 0-0.1-0.2 0-0.2-0.2-0.2-0.7-0.2-0.3-0.3-0.4-0.5-0.3-1.7-1.2-0.4-0.4-0.2-0.3-0.7-0.6-5.2-3.5-0.4-0.4-0.2-0.3-0.1-0.4 0-0.5 0-0.5 0.3-3.6 0.1-0.2 0.1-0.2 1.1-1 0.1-0.3 0.1-0.2-0.1-0.3-0.2-0.2-0.1-0.1-1-0.7-0.6-0.4-0.6-0.5-0.8-0.9-0.1-0.1-0.1-0.3-0.1-0.1-0.1 0-0.1 0-0.3 0.2-0.4 0.6-0.3 0.2-0.2 0.2-0.3 0.1-0.3 0.1-0.6 0-0.6-0.1-0.9-0.3-0.4-0.2-0.1 0-0.4-0.3-0.8-0.4-0.2-0.1-0.3-0.1-0.3 0-5.6 0.2-0.4 0.1-0.5 0.2-2.1 1.3-0.2 0.2-0.3 0.5-0.2 0.2-0.4 0.1-0.4 0-2.3-0.5-5.3-0.7-0.1 0-5.5-2.4-2.3-1 4.1-7.6 0-0.2 0-0.2-0.4-1.1-0.1-0.5-0.4-0.5-1.7-1.6-0.2-0.3-0.1-0.2-0.1-0.2-0.2-0.6-0.1-0.4 0-0.4 0-0.4 0.1-0.3 0.2-0.3 1.4-1.9 0.1-0.4-0.1-0.4-0.4-0.7-0.1-0.3 0-0.2 0.2-1.1 0.6-2.9 0.2-0.4 0.2-0.4 0.3-0.5 0.5-0.6 0.4-0.4 0.8-0.6 0.8-0.3 0.6-0.1 0.6-0.1 0.6 0.1 1.5 0.6 0.3 0 0.3-0.1 1.2-1.8 0.3-0.2 1.1-0.8 0.8-0.4 0.8-0.2 0.4-0.2 0.6-0.4 2.1-2.5 0.5-0.4 0.4-0.3 1.8-0.4 0.4-0.3 0.4-0.5 0.1-0.4 0.1-0.3-0.1-0.9 0-1.7 0.1-0.9 0.1-0.4 0.3-0.3 0.6-0.3 1.1-0.2 1.7 0.1 1.4-0.2 0.2-0.2 0.2-0.2 0.1-0.5 0-0.4-0.3-0.5-0.1-0.3-0.1-0.3 0-0.2 0.1-0.2 0.4-0.3 3-1.1 0.3-0.3 0.4-0.3 0.4-0.7 0.2-0.5 0.2-0.9 0.1-0.3 0.8-1.1 0.5-1 0.1-0.2 0-0.2-0.2-0.6-0.9-2.3-0.2-0.9 0-1.5-0.1-0.4 0-0.3 0.1-0.2 0.3-0.2 1.1-0.1 1.8-0.5 0.7-0.3 1.6-1.3 0.3-0.2 0.3 0.1 0.6 0.4 0.9 0.9 0.3 0.2 0.2 0 1.4-0.3 1.6-0.1 0.9 0.1 0.5-0.1 1-0.2 5.7-2.2 0.8 0.1 1.4 0.3 3.3 1.1 0.4 0 1.2-0.1 0.6 0 0.3 0.1 0.4 0.2 0.3 0 0.3-0.1 0.8-0.4 0.3 0 0.2 0.2 0.5 0.7 0.3 0.5 0.2 0.2 0.1 0 0.2 0.2 0.3 0 1.5-0.1 0.4 0.1 0.7 0.3 0.3 0.1 0.3-0.1 0.6-0.4 1.1-1 0.4-0.1 0.4 0 0.4 0.2 1.1 0.5 0.3 0 0.3-0.1 1.2-0.7 0.2-0.1 0.6 0.1 1.7 0.5 1.2 0.4 1.1 0.3 0.3 0 0.4-0.2 0.1-0.4 0-0.4-0.1-0.3 0-0.3 0.1-0.3 0.2-0.6 0-0.3 0-0.4-0.1-0.5-0.1-0.5-0.4-0.4-0.7-0.6-3.1-2.1 0-0.1-0.8-0.8-0.7-0.4-0.6-0.3-2.1-0.4-0.4-0.1-0.3-0.2-0.1-0.1-0.2-0.1-0.3-0.4-0.2-0.3 0-0.1-0.1-0.8 0.1-1.4 3.5 0.1 3.4 0.7 1.7 0.7 4.6 2.9 1.7 0.4 1.7 0.7 1.6 0 3.3-1.1 0.5-0.7 0.3-2.4 0.4-1 0.8-0.6 0.9-0.3 3.7 0.5 1.3-0.5 2.8-2.2 4.6-3 1.5-1.2 2.3-0.7 1.2-0.1 1.1 0.4 0.2 0.1 0.2 0.3 1 1.5 1.1 0.9 0.9-0.2 0.4-2.2 0.2-0.6 0.1-0.5-0.1-0.5-0.3-0.4 1.1-0.6 3.6-0.9 2.1-0.8 0.8 0.2 0.8 1.1 1.5 1.4 4.2 0.1 1.7 1.4 0.1 0 1.6 2.5 0.4 0.9 0.3 2.1 0.3 0.7 0.8-0.3 0.3-0.7 0.5-2 0.1-0.2 1.1 0.5 0.1 0 0.1 0 0.2-1.3-0.1-0.3-0.1-0.2 1-0.5 1.9-0.5 2.1 0 4.8-0.7 1 0.2 0.8 0.5 1.6 1.4 1.9 1.1 6.7 1.4 2.1 0.9 1.5 1.6 0.9 2.1 0.4 2.7 0.1 2.8 0.4 2.7 1.2 1.7 3.4 0.1 0.4-0.5 0.2-0.7 0.1-0.2 0.1 0.2 1.5 0.6 0-0.3-0.1-1 0-0.4 0-0.1 2.2-0.8 4.4 0.9 4.5 2.1 3.4 2.5 3.4 3 1.4 1.8 5.7 10.9 0 0.1 0.2 1.1 0.4 1.7-1.1 5.6 0 2.7 0.5 1.1 1.4 1.8 0.6 0.9 0.1 1.2-0.7 0.6-1 0.5-0.8 0.9 0 0.7 0.4 1.3 0 0.7-0.1 0-0.5 0.3 0.2 0.4-0.3 0.2-1.2 0.8-0.2 0-0.3 0.2-0.1 0.2-1 0.6-0.7 0.7-0.4 1.2 0.3 2.3 1.2 2.2 1.8 1.7 1.7 0.8 4.3 0.3 1.6 0.9 1.4 2.6 0.5 2.6 0.3 2.9 0.5 2.4 1.6 1.4 1.3 0.1 2.7-0.7 1.3-0.2 1.1 0.3 0.9 0.3 0.9 0 1.8-1.2 0.3 0 0.8 0.2 0-0.2 0-0.3 0.2 0 0.9 0.2 1.1-0.2 0.4-0.4 0.7-1.2 0.2 0 0.5-0.1 0.3-0.3 0.2-0.2 0.6-0.1 1.2 0 1.4-0.5 0.6-0.7 0.1 0 1.3-1.1 0.2-0.3 0.9 0.3 0.5 2.2-0.8 5.7 1.1 2.2 1.9 1.1 4.1 1.5 1.8 1.4 1.3 1.9 0.7 0.8 1 0.5 0.8 0.1 7.6 18.5 7.6 18.4-0.3 0.2-1.1 1.4 0.2 1.7 0.5 1.9-0.4 2.1-0.9 1.2-3.3 2.7-1.1 1.2-0.7 0.6-0.9-0.2-1.5-1-1.5-0.4-2 0.2-1.9 0.7-1.4 1-0.5 1.6 0.3 3.7-0.6 1.3-5.1 4.9-0.7 0.4-4.9 1.1-0.9 0-0.9-0.4-2.5-1.8-2.1-0.3-2.2 0.8-7.7 4.5-6 1.6-1.9 0-3.5-1.5-2 0.4-0.9 0.8-1.1 2-0.8 0.9-0.4 0.3-1.5 0.4-3.7 2.8-3.2 3.4-1.2 0.9-1 0.3-2.4-0.3-1.2 0-3.2 0.8-2.5-0.1-14.8-4-2.3-1.2-2.2-1.6-0.9-1-0.8-1.3-0.7-0.5z" id="PKGB" name="Northern Areas">
  </path>
  <path d="M767.3 54.9l-0.1 1.4 0.1 0.8 0 0.1 0.2 0.3 0.3 0.4 0.2 0.1 0.1 0.1 0.3 0.2 0.4 0.1 2.1 0.4 0.6 0.3 0.7 0.4 0.8 0.8 0 0.1 3.1 2.1 0.7 0.6 0.4 0.4 0.1 0.5 0.1 0.5 0 0.4 0 0.3-0.2 0.6-0.1 0.3 0 0.3 0.1 0.3 0 0.4-0.1 0.4-0.4 0.2-0.3 0-1.1-0.3-1.2-0.4-1.7-0.5-0.6-0.1-0.2 0.1-1.2 0.7-0.3 0.1-0.3 0-1.1-0.5-0.4-0.2-0.4 0-0.4 0.1-1.1 1-0.6 0.4-0.3 0.1-0.3-0.1-0.7-0.3-0.4-0.1-1.5 0.1-0.3 0-0.2-0.2-0.1 0-0.2-0.2-0.3-0.5-0.5-0.7-0.2-0.2-0.3 0-0.8 0.4-0.3 0.1-0.3 0-0.4-0.2-0.3-0.1-0.6 0-1.2 0.1-0.4 0-3.3-1.1-1.4-0.3-0.8-0.1-5.7 2.2-1 0.2-0.5 0.1-0.9-0.1-1.6 0.1-1.4 0.3-0.2 0-0.3-0.2-0.9-0.9-0.6-0.4-0.3-0.1-0.3 0.2-1.6 1.3-0.7 0.3-1.8 0.5-1.1 0.1-0.3 0.2-0.1 0.2 0 0.3 0.1 0.4 0 1.5 0.2 0.9 0.9 2.3 0.2 0.6 0 0.2-0.1 0.2-0.5 1-0.8 1.1-0.1 0.3-0.2 0.9-0.2 0.5-0.4 0.7-0.4 0.3-0.3 0.3-3 1.1-0.4 0.3-0.1 0.2 0 0.2 0.1 0.3 0.1 0.3 0.3 0.5 0 0.4-0.1 0.5-0.2 0.2-0.2 0.2-1.4 0.2-1.7-0.1-1.1 0.2-0.6 0.3-0.3 0.3-0.1 0.4-0.1 0.9 0 1.7 0.1 0.9-0.1 0.3-0.1 0.4-0.4 0.5-0.4 0.3-1.8 0.4-0.4 0.3-0.5 0.4-2.1 2.5-0.6 0.4-0.4 0.2-0.8 0.2-0.8 0.4-1.1 0.8-0.3 0.2-1.2 1.8-0.3 0.1-0.3 0-1.5-0.6-0.6-0.1-0.6 0.1-0.6 0.1-0.8 0.3-0.8 0.6-0.4 0.4-0.5 0.6-0.3 0.5-0.2 0.4-0.2 0.4-0.6 2.9-0.2 1.1 0 0.2 0.1 0.3 0.4 0.7 0.1 0.4-0.1 0.4-1.4 1.9-0.2 0.3-0.1 0.3 0 0.4 0 0.4 0.1 0.4 0.2 0.6 0.1 0.2 0.1 0.2 0.2 0.3 1.7 1.6 0.4 0.5 0.1 0.5 0.4 1.1 0 0.2 0 0.2-4.1 7.6 2.3 1 5.5 2.4 0.1 0 5.3 0.7 2.3 0.5 0.4 0 0.4-0.1 0.2-0.2 0.3-0.5 0.2-0.2 2.1-1.3 0.5-0.2 0.4-0.1 5.6-0.2 0.3 0 0.3 0.1 0.2 0.1 0.8 0.4 0.4 0.3 0.1 0 0.4 0.2 0.9 0.3 0.6 0.1 0.6 0 0.3-0.1 0.3-0.1 0.2-0.2 0.3-0.2 0.4-0.6 0.3-0.2 0.1 0 0.1 0 0.1 0.1 0.1 0.3 0.1 0.1 0.8 0.9 0.6 0.5 0.6 0.4 1 0.7 0.1 0.1 0.2 0.2 0.1 0.3-0.1 0.2-0.1 0.3-1.1 1-0.1 0.2-0.1 0.2-0.3 3.6 0 0.5 0 0.5 0.1 0.4 0.2 0.3 0.4 0.4 5.2 3.5 0.7 0.6 0.2 0.3 0.4 0.4 1.7 1.2 0.5 0.3 0.3 0.4 0.2 0.3 0.2 0.7 0.2 0.2 0.2 0 0 0.1 0.8 0.2 0.3 0 1.1-0.1 0.3 0 0.6 0.1 0.5 0.2 0.4 0.3 0.1 0 0.3 0.3 0.2 0.3 0.2 0.3 0 0.4 0.7 1.4 0.1 0.1 1.8-1 1.2 0.3 0.1 0 2.1 1.6 0.1 0 0 0.1 3.5-0.6 3.5-0.1 7.2 1.1 0.8 0.4 0.3 1.1 0.1 0.2 0.1 2.9 0.1 0.3 0.1 0.2 0 0.2 0 0.2-0.2 0.2-0.2 0.2-0.5 0.2-1.4 0.8-0.9 0.7-0.1 0.1-0.1 0.2-0.1 0.3-0.3 0.7-1.3 2.2-0.1 0.4-0.1 0.2 0 0.2 0 0.4 0.1 0.2-0.2 1.9-0.1 0.3 0.1 0.3 0 0.2 1.7 2.9 0.1 0.4 0 0.3-0.1 1-0.2 0.4 0 0.3 0 0.3 0.4 0.6 0.3 0.3 0.2 0.2 0.1 0 0.2 0 0.1 0 0.2-0.1 0.2-0.2 1.2-1.2 0.2-0.2 0.2 0 0.1-0.1 1.4 0 0.4 0.1 0.1 0 0.2 0.1 0.5 0.2 1 0.5 1.1 1.2 0.2 0.1 0.1 0.1 0.3-0.1 1-0.3 0.6 0 0 0.1 0.7 0.2 0.2 0.1 0.5 0.2 1.4 1.8 0.3 0.1 0.2 0.1 0.1 0 0.1 0 0.4-0.2 0.5-0.1 0.9-0.1 0.1 0.1 0.2 0 0.2 0.2 0.1 0.2 0.2 0.2 0.1 0.1 0.9 1 0.4 0.2 0.2 0.1 0.1 0 0.8 0.1 1.5 0.1 1.1 0 0.1 0.1 0.1 0 0.1 0.2 0 0.2-0.1 0.3 0 0.3 0.2 0.3 0.8 0.7 0.2 0.3 0.1 0.1 0 0.4-1.4 0.5-0.6 0.5-0.5 0.5-0.2 0.4-0.5 1.1-0.1 0.4 0 0.3 0.1 0.2 0.1 0.2 0 0.1 0.1 0 0.1 0.2 0.1 0 0.1 0.1 0.6 0.3 0.3 0.2 0.3 0.4 0.2 0.5-0.1 0.2 0 0.1-0.1 0.2-0.3 0.2-0.4 0.3-0.6 0.5-0.4 0.7-0.2 0.5-0.1 0.6 0.1 1-0.2 0.6-0.2 0.6-0.2 0.2-0.1 0.1-0.6 0.4-0.2 0.4-0.2 0.2-0.2 0.6-0.3 1.2-0.1 0.1-0.3 0.4-0.1 0.1-0.2 0.2-0.7 0.3-0.6 0.2-0.3 0.1-0.3 0.1-0.9 0.1-0.5 0.1-0.3 0.3-0.1 0.1-0.2 0.2-0.3 0.3-0.4 0.7-0.1 0.1-0.2 0.2-0.1 0.1-0.4 0.4-0.3 0.1-0.2 0.1-1 0.8-0.1 0.1-0.2 0.1-2.4-0.2-1.2 0.2-0.2 0.1-1.1 0.8-0.4 0.2-0.3 0.1-0.4 0.1-1.1-0.1-0.4 0.2-0.6 0.4-1.2 0.9-0.5 0.5-0.5 0.5-0.4 0.8-0.4 1.5-0.3 0.5-1.7 2.6-0.1 0.3-0.1 0.3 0.1 0.4 0.1 0.2 0.4 0.7 0.1 0.4 0 0.3 0 0.4-1.2 3.3-0.5 1-0.2 0.3-0.1 0.1-0.3 0-0.1-0.2-0.2-0.1-0.2-0.5-0.1-0.3-0.1-0.2 0-0.1-0.3-0.2-0.4 0-0.1 0-0.5 0-0.5 0-0.5 0.2-0.7 0.4-1 0.5-0.1 0-0.2 0-0.1 0-0.2 0-1.1-0.2-0.3 0-0.1 0-0.2 0-1.7 0.3-0.5 0.3-0.3 0.2-0.1 0.3-0.1 0.3 0 0.3 0 0.6 0 0.3-0.1 0.2-0.3 0.5-0.1 0.3 0 0.3 0.1 1.8-0.1 0.2 0 0.2-0.1 0.2-0.3 0.6-0.1 0.2-0.1 0.3 0 2 0 0.4 0 0.2-0.3 1.2-0.3 0.8-0.6 1.2-0.3 0.3 0.4 1.4 2.3 3.4 0.4 0.9 0.3 0.7 0.8 0.9 0.9 4.8 0.1 1.1-0.1 2.2 0 0.2 0 0.4 0 0.7 0 0.1 1 4.1 0.6 4 0 0.1-0.6-0.2-0.2-0.3-0.3-0.2-0.4 0-0.5 0.3-1 0.5-0.4 0.1-0.3 0.2-0.3 0.3-1 1.8-0.3 0.3-0.4 0.3-0.5 0-0.3 0-0.2 0-0.6-0.5-0.4-0.1-0.3 0.1-0.4 0-0.3 0.2-0.3 0.4-0.1 0.7 0.1 0.3 0.2 0.3 0 0.2-0.1 0.2-1.6 2.4-0.4 0.6-0.2 0.5 0 0.2-0.1 0.3-0.1 0.3-0.3 0.3-1.3 0.5-1 0.7-1.7 0.7-1.4 1.2-1.3 0.9-2.7-0.2-1 0.4-0.5 0.6-0.1 0.2-0.3 0.2-1.2 0.6-2.1 0.3-0.5 0.1-0.6 0.3-0.9 0.6-0.5 0.5-0.6 0.7-1.2 0.6-2.7 0.5 0-0.8 0.1-0.2 0-0.3-0.1-0.1-0.4-0.1-0.7 0.1-0.4 0-0.3-0.1-0.6-0.5-0.3 0-1.2 0.1-0.4 0-0.3-0.1-0.2-0.3-0.1-0.5 0.2-1.1 0.2-0.4 0.3-0.3 0.4-0.1 0.4-0.3 0.2-0.2 0.2-0.2 0.1-0.2 0.1-0.2 0-0.3-0.2-0.2-0.4-0.3-0.4-0.2-0.4 0-0.3 0.2-0.3 0.1-0.3 0-0.2-0.1-0.2-0.1-0.2-0.2-0.1-0.2 0.3-0.4 0.4-0.4 0.2-0.1 0.1-0.3 0.1-0.2 0-1 0-0.2-0.1-0.4-0.2-0.4-0.2-0.1-1.3 0.1-1-1.1-0.2-0.3-0.1-0.3 0.1-0.2 0.1-0.3 0.3-0.8 0-0.2-0.1-0.3-0.3-0.4-0.3-0.2-0.3-0.3-0.3-0.1-0.4 0.2-0.3 0.2-1.2 1.3-0.1 0.2-0.1 0.3 0 0.1 0.1 0.5 0 0.2-0.1 0.1-0.2 0.1-0.7 0.2-0.2 0.2-0.3 0.4-0.4 1-0.3 0.4-0.3 0.3-0.2 0.2-0.2 0.1-0.7 0.2-0.8 0.2-0.4-0.1-0.4-0.3-1.3-1-0.2-0.3-0.2-0.3 0.1-0.4 0-0.3 0.2-0.3 0.7-0.8 0.3-0.3 0.5-0.2 0.2-0.1 0.2-0.3 0-0.2-0.1-0.3-0.4-0.3-0.7-0.3-1-0.3-2.5-0.3-0.3-0.1-0.4-0.4-0.4-0.5-0.5-1.7-0.9-2.1-0.9-0.1-2.4 0.1-2 0.6-1.8 1.3-1.8 1.6-1 0.5-5.3 1.2-0.8 0.4-0.8 2.5 0.8 6.5-0.4 2.6-0.6-0.5-0.7-0.2-0.7 0.2-0.6 0.5-0.9-0.5-1-0.2-2.2-0.2-1.5-0.7-0.2 0.1-1.2 1.5-0.5 0.4-1.2 0.4-0.6 0.6-0.6 2-0.3 0.3-0.3 0.5-1.2 2.7-0.2 0.9-0.2 3.5-1 1.9 0 0.7 0.1 0.9-0.1 1.4-0.5 0.7-2.4 1.8-0.3 0.5-0.2 0.9-0.3 0.4-0.5 0.7-0.3 0.5 0 0.6 0.3 0.8-0.6 0.2-0.3 0.3-0.2 0.5-0.5 0.3-0.5 0.1-1.6-0.1-0.9 0.3-3.1 1.6-1 1.4-0.1 1.3 0.2 1.1-0.5 1-0.7 1-0.3 1.1 0.3 1.1 0.9 0.7-0.4 0 0.8 1 0.8 0.8 0.5 0.9 0.2 1.5-0.2 1.3-0.6 0.9-0.6 0.7-0.5 0.7-0.4 1.3-0.1 1.1 0 1.4-0.6 0.8-2.7-1.2-0.5-0.4-0.6-0.6-1-1.3-0.5-0.8-0.3-0.7-0.2-0.4-0.1-0.5 0-2-0.1-0.5-0.2-0.4-0.4-0.5-0.7-0.7-1.4-0.9-0.4-0.1-2.3 0.8-0.4 0-0.5-0.1-1.6-0.8-0.4-0.3-0.4-0.3-0.2-0.4-0.4-0.4-0.5 0.4-0.2 0.5-0.3 1.5 0.1 0.9 0.3 0.5 0.3 0.2 0.1 0.2 0.1 0.2 0.1 0.4 0 0.2 0 0.4 0 0.2 0.1 0.2 0.4 1 0.5 0.6 0.1 0.3-0.6 3 0 0.6 0.1 0.3 0.2 0 0.2 0 0.2-0.1 0.3 0 0.2 0.1 0.3 0.3 0.1 0.3 0.1 0.4 0 0.3-0.1 0.4-0.2 0.6-0.7 1.1-0.4 0.3-0.4 0.2-0.7 0.2-0.6 0-0.6 0.2-0.7 0.4-0.5 0-0.4 0-0.4 0.1-0.5 0.1-0.6 0.4-0.4-0.1-0.3-0.2-0.1-0.1-0.2-0.1-0.7-0.2-0.3-0.2-0.4-0.3-0.1 0-0.2 0-3.6 1.5-0.6 0.3-0.9 0.5-0.6 0.3-0.5 0.3-0.4 0.5-1.4 2.2-0.3 0.9-0.3 1.1-0.4 4.9-0.2 1-0.6 0.6-0.6 0.3-0.2 0.1-0.1 0.3 0.1 0.7 2 4.2 0.2 1.3 0 1.3 0.1 0.6 0.6 2.3 0.2 1.9 0.2 0.6 0.4 0.4 0.6 0.3 0.5 0.1 0.4 0 2.5-0.5 0.2 0 0.3 0.1 0.2 0.2 0.2 0.3-0.1 1.2-0.8 2.8 0.2 0.9 0.3 0.6 0.3 0.4 0.2 0.2 0.3 0 0.2-0.1 0.3-0.3 0.1-0.3 0.2-0.5 0.1-0.2 0.2-0.2 0.3-0.1 0.3-0.1 0.1-0.1 0.1-0.2 0.1-0.2 0.2-0.4 0.2-0.2 0.3-0.1 0.5 0 0.4 0.2 0.2 0.3 0 0.3 0.1 0.5 0.1 0.2 0.2 0.2 0.3 0.7-0.1 4.6-0.4 1.2-0.5 1-2.1 2.9-0.6 1.1-0.3 1.1 0 1.4-0.1 0.6-0.2 0.7-1.2 1.8-0.2 0.8-0.6 2.7-0.5 1.4-0.7 1-0.5 0.4-1.6 0.9-0.6 0.4-2 2.3-0.5 0.8-0.3 0.8-0.2 1 0 1.3-0.1 0.5-0.3 0.6-2.1 2.1-0.8 1.1-1 2.8-0.8 0.9-0.9 0.9-0.8 1-0.5 1.2-0.6 2.7-0.3 1.3-2.5 4.9-1 1.5-0.3 0.8 0 0.9 0.2 1.1 0.1 0.4-0.1 0.6-2.8 7.3 0.6 1.1 0.2 0.4 0.7 0.9 0.3 0.3 0 0.3-0.3 0.2-0.5 0.2-0.2 0.3-0.1 0.4 0.5 1.5 0.1 0.4-0.2 1.7-0.2 0.8-0.2 0.3-0.3 0.3-0.7 0.5-0.9 0.2-0.3 0.3-0.1 0.3-0.5 2 0.2 0.5 0 0.3 0 0.4-0.2 0.4-1.3 1.3-0.9 1.7-1-0.5-0.5-0.3-0.6-0.7-0.3-0.2-0.3-0.2-0.4-0.1-0.4 0.1-0.8 0.2-2.5 1.1-0.5 0.1-0.8-0.2-0.6-0.2-1.9-0.8-1-0.3-0.6 0-0.6 0.2-1.3 1.1-0.5 0.3-0.4 0.2-0.9 0.1-0.4 0-0.9-0.1-0.5 0.1-0.4 0.3-0.7 0.9-0.3 0.5-0.2 0.4-0.1 0.5-0.1 0.3-0.1 0.1-0.6 0.3-0.9-0.1 0.4 2.9-0.2 0.7-0.3 0.1-2.5 0.2-0.3 0-0.5 0.2-1.3 0.6-1 0.3-2 1.1-0.3 0.3-0.1 0.3 0 0.3 0.1 1.1 0.4 1.3 0 0.5 0 0.5 0 0.3-0.5 1-0.3 0.2-0.3 0-0.2-0.1-0.2-0.4-0.5-2.1-0.1-1.6 0.1-2.6 0.9-5.6-0.2-4.4 0.1-0.7 0.7-2.8 0.1-0.7-0.1-0.4-0.1-0.4-0.2-0.3-0.6-1-0.2-0.5-0.1-0.9 0-1 0-0.7-0.2-0.7-0.2-0.3-0.2-0.3-0.1-0.1-0.2 0-0.1 0.2-0.2 0.3-0.3 0.4-0.7 1-0.2 0.2-0.2 0.1-0.3 0-0.2 0.1-0.2 0.1-0.4 0.5-0.3 0.7-0.3 0.5-0.3 0.3-0.3 0.2-0.2 0.1-0.3 0-0.9-0.2-0.4 0-0.2 0.2-0.2 0.1-0.2 0.2-0.1 0.2-0.3 0-0.3-0.1-0.5-0.4-0.3-0.2-0.2 0.1-0.1 0.2-0.1 0.2-0.1 0.3-0.2 0.7-0.2 0.7-0.1 0.1-0.5 0.6-0.2 0.3-0.2 0.4-0.1 0.7-0.1 0.6 0.1 1.1 0 0.2-0.1 0.2-0.2 0-0.5-0.3-0.2-0.3-0.1-0.4-0.1-0.7-1-7.1-0.8-1.6-0.6-0.3-0.4 0-0.5-0.1-1.9-0.8-0.4-0.3-0.2-0.2-0.2-0.7 0-0.4 0-0.4 0.1-0.8 0.4-1.4 0.2-0.9 0.2-4.1 0.2-1.5-0.2-4.5 0-1-0.1-3.6 0.2-1.5 0.4-1.2 0.3-3.4-0.1-0.3-0.2-0.3-0.2 0-0.2 0-0.3 0.1-0.1 0.2-0.8 1.4-0.5 0.7-0.3 0.3-0.2 0.2-0.3 0.2-0.4 0.1-0.2 0.1-0.2 0-0.3-0.1-0.3-0.2-0.3-0.3-0.4-0.3-0.3-0.6-0.2-0.4-0.1-0.4 0-0.3 0-0.3 0.1-0.3 1.2-2 0.2-0.5 0.1-0.6-0.1-0.4-0.1-0.2-0.3-0.2-1-0.7-0.8-0.5-0.6-0.6-0.5-0.6-0.1-0.5 0.1-0.5 0.4-0.8 0.5-1.3 0.1-0.9-0.2-0.3-1.6-0.2-4.3 0.9-0.5 0-2.6 1-0.9 0.8-1.4 2.1-0.9 1-1 0.9-0.9 0.7-1.9 0.5-1-0.2-8.4 0.7-1.1 0.2-0.8 0-0.4-0.6-1.5-0.1 0.2-0.4-0.2-0.8-1.7-5.1-1.1-6.2 0-1.5 0.5-2.8 0-2.8 0.4-2.8 0-1.5-0.2-1.4-1.4-3.7-0.6-2.8 0.3-2.8 1-2.5 1.7-2.1 1.1-0.8 2.4-0.8 1-0.8 2.9-4.5 0.7-1.3 0.2-0.8-0.6-2.2-0.1-1.2-0.1-0.5-0.4-0.3-0.5-0.2-0.5-0.3-0.4-0.4-0.3-0.6-0.1-1.3 0.6-0.9 1.9-1.4 1.4-1.9 1.4-1.1 0.4-0.3 0.5-2-1-7.2 0.5-1.2 0.6-1.1 1.4-1.9 1.9-1.2 2.3-0.3 1.1 0 1.8-0.3 0.6 0.1 0.4 0.2 0.6 0.1 1-0.2 2.6-1.9 2.2-0.4 3.7 1.9 2.4-0.2 4.2-2.6 0.6-0.1 1.6 0.2 0.7-0.3 0.4-0.6 1.9-3.6 0.6-0.3 1.4 0.5 1.2 0.1 1.1-0.6 9.5-8.1 0.4-2.2-0.9-2.1-2.9-3.3-0.3-0.5-0.4-1.1-0.4-0.4-1.6-0.5-0.4-0.3-0.8-1-0.5-1.2-0.2-1.3 0.1-1.3 1.1-4.2 0.1-1.6-0.3-0.5-0.4-0.3-0.9-0.4-0.5-0.5-0.3-0.3-0.3-1.1-0.5-2.6-0.5-0.8-2.4 0.5-3-1.3-0.9-0.2-1.3-0.1-0.9-0.6-0.6-1.3-0.4-1.3-0.5-1-1.3-2-0.5-1-0.7-2.6-0.5-0.9-1.7-1.6-0.3-1.1 0.7-0.9 1-1.1 0.1-1-0.2-1 0.1-1.1 1-0.9 0.9-0.3 0.6-0.2 3-0.5 1.9 0.1 12.1 4.3 3.2 0.3 1.9 1 1 0.3 4.5 0.2 4.7 1 1.7 0.1 7.5-1.1 7.6 0.1 4-0.8 1-2 0.2-0.9 0.6-0.1 1.5 0.5 1 0 0.8-0.2 0.7-0.6 0.6-0.9 1.2-0.4 2.7-0.6 0.9-0.9 0.3-1.2-0.2-1.1-0.1-1.1 0.6-1.4 1.6-1.8 0.4-0.9 0-1.6-0.1-1.4-0.6-2.3 0-1.3 1.7-4.7-0.3-1.7-3.9-2.2-1.8-1.7-1.6-1.9-1.1-1.8-0.6-1.3-0.3-1.5 0.1-1.5 0.6-1.2 0.9-0.4 0.1 0 1.2-0.1 2.3 0.4 1-0.5 0.6-1.4 0.2-1.6-0.2-1.4-0.4-1.6 0-1 0.6-0.8 4-3.2 2.1-1.2 0.8-0.7 2.9-4.3 0.9-2.3 1-2.1 2-1.6 6.8-2.7 0.8-0.3 0.5-0.5 0.4-0.7 0.5-1.6 0.5-0.8 0.6-0.4 0.4-0.6 0.1-0.6-0.3-0.7 0-3 1.5-1.8 3.9-2.7 1.4-2.2 0.5-1.4-0.3-0.9-1.7-1.4-3.1-3.6-1-1.7 0.1-1.9 1.7-2.2 2.8-2.4 0.5-1 0.1-1.4-0.5-0.9-0.7-0.8-0.4-0.6-0.3-0.5-0.4-1.5 0.3-1.3 0.4-1.3 0-1.3-0.5-1-0.9-0.7-3.1-1.6-1.2-0.9-0.5-1.1 0.7-1.4 1-1.3 0.4-1.3-0.3-1.2-0.7-1.2-0.4-0.4-0.8-0.7-0.3-0.4-0.3-0.8 0-0.6 0.1-0.6-0.1-0.7-0.4-1.1-1.8-3.3-0.8-1.1-2.6-1.8-0.6-1.1-0.2-2.2-0.8-1-1.7-0.7-1.6-0.4-1.5-0.6-1.4-1.6-0.8-0.6-2-1.1-0.6-0.5-0.1-0.3-0.2-1 0.5-1.1 1.8-1.9 0.3-0.6 0.3-1.5 0.3-0.5 2.2-1.4 1.7-0.8 0.5-0.4 0.4-0.7 0.3-1.4 0.3-0.5 3.5-1.3 1.2-0.8 4.3-4.9 0.9-0.6 1.1-0.4 1.3-0.3 1.1-0.6-0.3-0.9-0.6-1 0.3-1.1 1.4-1.4 0.5-0.7 0.4-1.2 0.7-2.1 0.5-0.6 1.1-0.1 1.1 0.4 3.2 2.2 1.7 1.8 0.8 0.3 0.9 0 0.9-0.3 0.7-0.8-0.2-1-1-1.9 0-2.2 1.1-0.7 3.7-0.3 0.9-0.3 0.7-0.6 0.7-0.7 0.7-0.7 2.7-1.5 0.9-1 1.2-0.6 2.3-0.6 0.9-0.8 0.1-0.7-0.3-0.6-0.1-0.5 0.5-0.6 0.7-0.4 1.4-0.5 3.2-0.4 1-0.6-0.4-1.1-0.8-1.4 0.2-0.9 0.9-0.6 2.5-1.1 4.9-1.1 2.5-0.2 2.3-0.7 2.6 0.1 1.2-0.3 3.5-3 2.7-1.4 3.6-0.8 3.7-0.3 4.7 0.7 5-0.3 1.6-0.4 1.4-0.8 1.4-0.3 1.7 0.7 0.8 0.1 0.6-0.4 1.4-0.9 0.9-0.3 8.4-0.9 1.7 0.2 1.7 0.4 0.8 0.1 0.8-0.1 2.8-1 2.7 0.2 3.7-0.5 1.7 0.3 1.9 0.2 7.3-1.2 3.9 0.2 0.1 0z" id="PKKP" name="K.P.">
  </path>
  <path d="M519.9 391.9l1.5 0.1 0.4 0.6 0.8 0 1.1-0.2 8.4-0.7 1 0.2 1.9-0.5 0.9-0.7 1-0.9 0.9-1 1.4-2.1 0.9-0.8 2.6-1 0.5 0 4.3-0.9 1.6 0.2 0.2 0.3-0.1 0.9-0.5 1.3-0.4 0.8-0.1 0.5 0.1 0.5 0.5 0.6 0.6 0.6 0.8 0.5 1 0.7 0.3 0.2 0.1 0.2 0.1 0.4-0.1 0.6-0.2 0.5-1.2 2-0.1 0.3 0 0.3 0 0.3 0.1 0.4 0.2 0.4 0.3 0.6 0.4 0.3 0.3 0.3 0.3 0.2 0.3 0.1 0.2 0 0.2-0.1 0.4-0.1 0.3-0.2 0.2-0.2 0.3-0.3 0.5-0.7 0.8-1.4 0.1-0.2 0.3-0.1 0.2 0 0.2 0 0.2 0.3 0.1 0.3-0.3 3.4-0.4 1.2-0.2 1.5 0.1 3.6 0 1 0.2 4.5-0.2 1.5-0.2 4.1-0.2 0.9-0.4 1.4-0.1 0.8 0 0.4 0 0.4 0.2 0.7 0.2 0.2 0.4 0.3 1.9 0.8 0.5 0.1 0.4 0 0.6 0.3 0.8 1.6 1 7.1 0.1 0.7 0.1 0.4 0.2 0.3 0.5 0.3 0.2 0 0.1-0.2 0-0.2-0.1-1.1 0.1-0.6 0.1-0.7 0.2-0.4 0.2-0.3 0.5-0.6 0.1-0.1 0.2-0.7 0.2-0.7 0.1-0.3 0.1-0.2 0.1-0.2 0.2-0.1 0.3 0.2 0.5 0.4 0.3 0.1 0.3 0 0.1-0.2 0.2-0.2 0.2-0.1 0.2-0.2 0.4 0 0.9 0.2 0.3 0 0.2-0.1 0.3-0.2 0.3-0.3 0.3-0.5 0.3-0.7 0.4-0.5 0.2-0.1 0.2-0.1 0.3 0 0.2-0.1 0.2-0.2 0.7-1 0.3-0.4 0.2-0.3 0.1-0.2 0.2 0 0.1 0.1 0.2 0.3 0.2 0.3 0.2 0.7 0 0.7 0 1 0.1 0.9 0.2 0.5 0.6 1 0.2 0.3 0.1 0.4 0.1 0.4-0.1 0.7-0.7 2.8-0.1 0.7 0.2 4.4-0.9 5.6-0.1 2.6 0.1 1.6 0.5 2.1-0.7 13 0.6 1.9 0.1 0.9-0.1 0.6-0.3 0.4-0.3 0.2-1.1 0.1-0.3 0.1-4.6 6.4-0.2 0.2-0.3 0-1.4 0.1-0.3 0.2-0.4 0.5-0.4 0.9-0.4 1.8-0.1 0.9 0 0.5 0.1 0.3 0.6 1 0.1 0.3 0.1 0.5-0.1 0.6-0.4 0.7-4.8 8.3-0.6 1.8-0.5 3.5-1.1 4-0.4 0.9-0.1 0.5-0.1 0.5 0.3 0.3 0.2 0.2 0.6 0.3 0.3 0.1 0.1 0.3 0.1 0.3-0.1 1.3 0.1 0.5 0 0.2 0.1 0.2 0.1 0.2 0.2 0 0.2 0 0.2-0.2 0.5-1 0.2-0.2 0.2-0.2 0.2-0.2 0.4-0.2 0.2 0 0.2-0.1 0.6 0 0.7 0.1 0.3 0.2 0.3 0.1 0.2 0.4-0.1 0.8-0.3 1.2-1.4 2.9-0.4 0.5-0.7 0.5-0.8 0.9-0.3 0.5-0.2 0.7-0.3 1.3 0 0.6 0 1.6-0.8 2.4-3 6.1-2.6 6.9-0.6 1-0.5 0.6-1 0.9-1.4 0.9-0.3 0.3-1.8 2.9-1.2 1.1-3.4 0.5-1.1 0.4-1 0.5-0.2 0.2-0.2 0.2-0.3 0.3-0.7 1.1-0.2 0.8-0.2 0.8 0 1.9 0.1 2.1-1.7 8 0.1 0.7 0.1 0.4 0.2 0.2 0.3 0.2 0.3 0.1 2.4 0.2 0.6 0.2 0.3 0.1 0.4 0.3 0.4 0.4 0.2 0.2 0.1 0.3 0.1 0.3 0.1 0.6-0.1 1-0.2 1.6 0.1 0.7 0.1 0.5 1.1 1.8 0.2 0.2 0.2 0.1 0.2 0 0.2-0.1 0.2-0.2 0.3-0.4 0.4-0.3 0.3-0.2 0.2-0.1 0.3-0.1 0.2 0 0.3 0.1 0.2 0.2 0 0.7 0 1.1-2 9.6-0.7 1.3-0.4 0.5-0.3 0.3-0.8 0.3-0.4 0.3-0.4 0.4-0.7 0.8-2.8 4.5-1.2 1.5-0.8 0.7-1.5 1.2-0.2 0.2-0.3 0.3-0.3 0.8-0.4 1.1-0.3 1.6-0.1 0.8 0.1 0.5 0 0.2 0.1 0.2 0.1 0.2 0.4 0.3 0.6 0.6 0.1 0.2 0.2 0.3 0.1 0.5-0.3 1.1-3.1 7.3-1.3 2.2-1.4 1.9-0.4 0.4-0.5 0.3-0.9 0.5-2.1 0.8-0.3 0.2-0.4 0.3-0.3 0.4-0.2 0.4 0 0.5 0 0.4 0.1 0.3 2.9 4.6-7.5 0.2-26.7 1.2-9.6-0.6-5.8 0.8-1.6 0.5-0.3 0.1-0.5 0.3-0.7 0.7-0.4 0.5-2.8 4.6-0.2 0.3-0.2 0.1-0.3 0.3-0.4 0.2-4.9 2.1-2.5 1.8-1 1.1-12.3 9.6-1.7 1.9-2.5 3.8-13.6 6.2-7.2 1.9-6.4 0.9-2.2 1.2-0.6 1.1-2.7 6.5-3.9 5.1-3.8 6.7-0.7 1.6-0.4 1.2-0.3 2.1-2.1 9.2-0.4 2.9-0.1 2.2 0.7 6.1 0.4 26.5 0.1 5.1 0.4 3.1 0.6 2.8 0.4 1.3 14.4 26.8 0.6 2.2 0.2 1.7-1 5.6 0 1.2 0.4 3.2 0 1.7-0.3 1.9-0.6 2.2-2.8 7.7-0.8 1.2-1.8 2-2 2.5-0.9 1.6-0.3 1-0.4 0.5-0.5 0.4-1.5 0.9-0.4 0.5-2.9 5.2-0.3 0.8-0.1 0.6 0 0.4 0.2 1.3 0.1 0.6-0.1 0.6-0.2 0.8-1.4 3.7-0.4 0.6-0.3 0.5-1.1 0.9-1.6 1.4-2 2.3-0.5 0.8-0.3 0.6 0 0.3-0.1 0.4 0.1 1.1 0 0.5-0.4 1-0.5 1-1.1 1.6-1.4 1.4-0.8 0.6-0.7 0.4-0.8 0.3-2.2 0.2-0.3 0.1-0.4 0.1-0.6 0.4-8.9 7.3 0-0.4-1.3-0.8 0-2.3 0.9-4.8 0.1-3.7 0.3-1.2 0.5-1 1.1-1.4 0.3-1-0.1-1.3-0.8-2-0.3-1.1-0.4-0.5-2-1.9-0.8-0.4-0.6-0.4-3-3-2-1.2-0.7-1 0.4-1.2 1.4 0.4 0.7-1.3-0.3-1.6-1.3-0.8-0.7-1.1-0.5-2.2-0.6-1.6-1 0.6-0.2-0.3-0.1-0.3-0.1-0.3-0.8 0.3-0.3-0.5-0.2-0.8-0.3-0.7-1.9-2-0.4-1-1.4 0.5-1.4-0.2-0.8-0.7 0.2-1.3-1 0.7-1.1 0.4-2 0.2-0.7-0.1-1.1-0.3-0.7-0.1-0.2 0.2-0.4 0.3-0.5 0.3-2 0.4-1.1 0.7-0.9 1-0.7 1-1 2.2-0.3 0.4-0.6 0.2-0.7 0.6-0.5 0.7-0.3 0.6 1.5-0.1 4.4-0.8 0.7-0.2 0.6-0.5 0.9-1 0.1-0.2 0.2-0.1 0.3 0 0.3-0.1 0.2-0.1 0-0.5-0.1-0.4 0.1-0.3 1.1-0.4 1.7-0.3 1.6 0.1 0.6 0.4 0.3 0.7 0.6 0.3 0.7 0.2 0.7 0.3 0.5 0.6 0.8 1.3 0.6 0.7 0.8-0.7 1.1-0.3 1.1 0.2 0.9 0.8-1.9 1.7 2.2 1.4 0.8 1-0.8 1-0.8-0.1-1-0.7-1.6-1.4-4.3-1.9-2.7-0.6-1.9 0.4-1.5-0.3-1.8 0.5-1.8 0.7-1.6 0.4-5 0-3.7 1.1-4.4 0.7-2.5-0.1-1.3 0.1-1.9 1-1.3 0.4-2 1.1-2.3 0.4-2.9 1.5-1.1 0.2-1.3-0.2-7.9-2.2-1.2-0.2-1.2 0.3-1.3 0.5-1.2 0.4-1.1-0.3 0.3-0.3 0.5-1-1.9 0.1-1.5 0.3-1.2 0.5-1.2 0.8-1.8-1-1.6 0.6-1.2 1.4-1.3 2.3-0.4 0.5-0.6 0.2-0.8 0.3-0.7 0-1.4-0.4-1.6-0.2-1.7-0.6-1-0.1-3.4 0-3.4-0.7-1.7 0-1.6 0.7-1.2-0.6-1.8-0.2-3.6 0.3-1.4 0.6-1.3 1.1-0.9 1.3-0.6 1.3-0.3 1.6 0 0.8 0.3 0.6 0.6 0.3 1 0.3 0.7 0.4 0 0.7-0.4 0-2.7 0.8-0.8 0-1.4-0.4-0.8 0 1.5-2.4 0-1-1-1.5-0.9-0.6-1.6-0.5-1.6-0.4-1 0-0.7 0.6-0.8 1.3-0.7 0.2-0.7 0.1-1.1 0.3-0.5 0.1-1.2-0.4-1.9-1.9-1.3-0.7-2.4-0.6-2.4-0.2-0.5-0.2-0.7-0.8-0.5-0.3-3.4-0.1-5-1.1 0-0.9 0.5-1.1 0.2-1.1-0.3-0.3-0.5-0.3-0.5-0.5-0.2-0.8 0.2-0.7 0.5-0.3 0.7-0.1 0.7 0 1.3 0.3 0.6-0.2 0.2-0.9-0.3-0.3-0.5-0.1-0.8 0-2.5 0.6-1.4 0.1-0.7-0.5-3.1 1.5-0.7 0.8 0.8-0.2 0.3-0.2 0.4 1.1 0.4 0.3 0.6-0.4 0.8-0.8 0.7 0 0.7 1.1 1.1 2.1-0.8 1.1-0.4 0.2-1 0-2 0.3-1 0-1-0.3-1.4 0.5-2.2-0.3-5.7-2.1-3.7-0.7-3.8 0.1-3.7 0.6-1.8 0.6-1 0.5-1 0.8-1.5 1.7-0.8 1.5-0.6 0.5-0.9-0.3 0.3 1 0.4 0.8 1.7 2.1 0.3 0.2 0.1 0.1-0.1 0.4-0.1 0.5-0.2 0.4-0.3 0.3-0.3 0.1-1.8-0.3-3.2-1.5-2-0.3-3.8 0.5-1-0.2-2.6-1.2-3.7-1-1.9-0.2-1.8 0.4-3.5 1.9-1.3 0.3-4.7-0.5-9.7-2.1-9.3-0.3-4.3 0.1-2.8 0.4-0.7 1.3 0.1 0.9 1.2 0.5-1.1 0.5-1.4-0.4-1.7 0.4-1.6 0.9-1.1 0.8-0.6 0.6-0.7 0.9-0.4 0.9 0.2 1 0.7 0.7 1.2 0.3 0.8 0.4-0.3 0.9-2.4 0-2.7-0.2-1.9-0.5 1.3-1.1 0.2-0.2 0.2-0.2 0.2-0.1 0.5-0.3 0.5 0.1 0.4-0.2 0.1-0.7-0.8-1.5-0.3-1.2-1.3-0.9-1.2-0.7-1.5-0.2-2-0.3-2.6 0.1-2.4 0.8-1.2 0.5-0.7 1.2-0.5 1 0.8 0.7 0.3 1.4 0.6 0.6 0.4 0.7-1.2 0.4-2.2-0.2-2.6-0.3-3.4-0.1-2.7 0.4-0.6 1.2-0.2 0.5-0.5 0.6-0.6 1.8-0.7-0.1-1.1 0.8-1.4 0.5-2 0.3-1.4-0.5-0.5-1 0.3-1.3 0.6-0.7-0.4-0.8 0.2-0.6 0.9-0.8 0.6-0.6 0.2-0.4 0-0.9 0.2-0.6 0.8-1.1 0.2-0.6-0.1-0.9-0.2-0.2-0.3 0.1-0.4 0.2-0.2 0.1-0.5 0.5-0.3 0.2-0.3-0.1-0.7-0.6-0.3-0.1-0.7-0.1-0.3-0.3-0.3-0.3-0.5-0.2-0.6-0.1-1.8 0.1-0.9-0.2-0.6-0.1-0.7 0.3-1.3-0.1 1.8-5.2 0.3-5.2 0.4-6.2 0.3-5.3 0.3-3.7 0.2-0.8 0.3-0.6 0.8-0.9 0.4-0.4 0.1-2.2-0.6-2.5-0.3-2.3 1.2-1.6 1.2-0.3 1.1 0 1-0.2 0.8-1 0.3-1.1 0.6-4.4 0.7-5.2 0.6-3.8 0.4-3.4 0.5-3.8 0.5-1.9 0.8-1.7 1.4-1.1 6.7-1.9 2.1-1.4 1-0.5 1.1-0.3 2.4-0.4 0.5-0.7 0.2-1.5 0.9-1.5 2.1 0.3 2.5 0.8 2.1 0.3 1.3-0.6-0.1-0.9-0.5-1.2-0.3-1.4 0.4-0.8 1.7-1.7 0.6-1.1-0.1-0.4-0.2-0.3-0.1-0.5 0.1-0.5 0.3-0.5 0.5-0.3 1.1-0.4 0.5-0.3 0.7-0.5 0.5-0.2 0.5-0.1 1.2 0.1 0.5-0.2 0.4-0.3 0.4-0.8 0.5-0.3 0.5-0.2 9.4-1 1.1-0.4 0.5-0.4 0.4-0.4 0.5-0.3 0.6 0.1 0.7 0.3 0.4 0 1.8-0.3 0.4-0.2 0.5-0.3 0.3-0.2 0.6-1.1 0.5-0.6 0.6-0.2 3.8 0.1 4.4 0.1 5.1 0.2 2.1 0.3 2.3 0.1 1.6-0.4 0.5 0 0.5 0.3 0.4 0.3 0.5 0.2 0.5 0 1.3-1.2 0.6-2.5 0.4-9.2 0.4-0.9 0.9-0.5 2.3-0.4 0.9-0.8 0.1-1.1-0.4-1-0.7-1.1-0.5-1.1-0.3-7.1 0.1-0.8 0.2-0.6 0.6-0.9 0.2-0.6 0.6-1 1.1-0.5 1.3 0 0.9 0.4-1.9-4.3-0.8-1.2-0.6-0.6-0.5-0.3-1.4-0.5-0.6-0.4-1.5-1.4-0.7-0.2-0.5 0-3.1 0.9-0.7 0.1-1-0.1-1.5 0-2.9 0.9-1.5 0.3-3.2 0.6-1.5 0.1-1.8-0.4-1.3-0.7-0.5-0.2-0.4 0.1-0.8 0.5-0.4 0-0.8-0.5-2.5-2.2 0.9 0 0.6-0.4 0.3-0.7 0.3-0.9 0.1-1.1-0.3-0.6-1.1-1.4 2.9-6.6 0.4-2.7-0.3-3.3-0.5-5.8-0.3-3.2-0.5-5.1-0.3-3.8-1.5-6.1-1-4.4 0.9-7.2 0.8-6.5-0.3-2.3-1.2-0.7-9.2 1.8-1.2-0.7-3.5-3.8-0.8-1.4-0.4-1.1-0.4-0.6-0.6-0.4-0.9-0.3-0.9-0.5-0.6-0.8-0.5-0.9-0.6-0.7-1.6-0.9-7.4-1.5-4.6-2-1.8-0.4-3.8-0.4-1.7-0.5-2.6-1.5-3.4-1-1-0.5-1.8-2.1-3.6-3.3-2.3-3-5.8-5.3-1.6-2-1.6-3.5-1.6-1.9-0.3-0.9-0.2-1.1-0.3-1.2-2.4-5.5-0.4-0.7-0.7-0.5-0.7-0.3-0.4-0.3-0.2-0.4 0.2-0.4 0.4-0.4 0.5-0.6 0.2-0.5-0.2-0.6-0.5-0.4-1-0.4-0.4-1-0.3-1.1-0.6-0.9-0.6-0.3-0.5-0.1-0.5-0.2-0.6-0.6-0.3-0.8-0.1-1.6-0.2-0.7-0.7-1.1-1.8-2-0.5-1.3 0-1.2 0.6-2.3 0.1-1.3-0.5-1.6-1-0.7-1.2-0.5-1.1-0.9-4.6-5.5-4.4-5.2-4.2-5.1-3.6-4.4-3-3.5-4.5-5.4 1.7 0.8 4 1.3 4.7 1.5 4.7 1.5 4.6 1.5 4.7 1.6 4.7 1.5 4.7 1.5 4.6 1.5 4.7 1.5 4.7 1.5 4.6 1.5 4.7 1.5 4.7 1.5 4.6 1.5 4.7 1.5 4.7 1.5 4.7 1.6 5.3 1.7 5.8 1.1 7-0.7 1.6-0.1 2.8-0.3 2.7-0.3 2.8-0.2 2.7-0.3 2.8-0.2 2.7-0.3 2.8-0.3 2.7-0.2 2.8-0.3 2.7-0.2 2.8-0.3 2.7-0.3 2.8-0.2 2.7-0.3 2.8-0.2 2.7-0.3 8.6-0.8 12.3 2.4 10.3 2 6.4 2.7 1.5-0.6 2.1-4 1.3-1.7 1.9-1 15.2-4.5 1.2 0 10.4 0.1 7.6 0.1 9.3 1.6 2.8 0.1 8.2-2.3 3.2-1 3.3-0.9 3.2-1 3.3-1 3.3-0.9 3.2-1 3.3-0.9 3.2-1 3.3-0.9 3.2-1 3.3-0.9 3.3-1 3.2-1 3.3-0.9 3.2-1 3.3-0.9 4.8-1.4 4.4-3.2 1.5-2 1.2-2 0.3-0.2 0.5-0.2 0.2-0.3-0.5-0.6-1.7-1.3-2.3-2.4-2-1.4-0.3-0.8 0.1-1.1 0.8-2.4 3.7-7.4 0.2-1.3-0.1-3.9 1-8.6-0.1-1.3-0.3-1.3-0.4-0.9-1.4-1.7-0.9-2.6 0.1-2.9 5.5-20.9 0.5-1 1-0.5 7.6-1.5 1.2-0.6 5.3-5.4 1.1-1.5 1.9-7.4 1.4-1 2.1-0.3 1.4-1.1 1.4-1.5 1.6-1.4 3.8-1.9 2.1-0.6 3.3-0.1 0.8 0.4 0.4 0.9 0.1 1.5-0.1 0.5-0.3 0.5-0.2 0.3 0 0.6 0.5 0.3 0.7 0.2 1.3 0.3 1.1 0 2.1-0.5 1.2-0.1 1.1 0.3 2 1.2 1.2 0.4 0.9 0.1 2.9-0.1 3.6 0.3 1-0.2 3.9-1.7 3.4-0.4 2-0.9 3-0.6 1.1-0.4 3.5-2.3 0.8-0.6 0.8-0.6 0.9-0.3 2.2 0.1 0.9-0.4 0.6-1.2-0.3-2.8-2-0.6-4.7 0.6-1.1-0.3-1.1-0.7-0.8-1-0.3-2.6-0.8-1.1-0.8-1-0.4-1 0.7-1.2 1.8 0 3.6 0.8 1.8-0.2 1.7-0.7 1.2-0.8 1.8-1.3 3.5-3.9 1.5-0.8 0.8 0 1.7 0.2 2.3-0.1 0.6-0.3 0.6-0.9 1-0.8 2.9-1.6 0.3-0.5 0.2-1.4 0.3-0.6 1.8-1.7 0.3-0.5 0.4-0.6 1.1-2.8 0.8-0.9 1.1-0.1 1.5 0.5 1.2 0.7 1.4 1.2 0.6 0.8 0.7 0.7 1.2 0.2 2.2-0.1 2.3 0.2 5.9 2.1 2 0.4 1-0.4 1.2-0.7 0.7-0.8-0.5-0.6-1.1-0.2-3.3 0.1-1.2-0.2-1-0.4-0.2-0.7 1.1-0.8 2.4-1.3 1.3-0.5 1.3 0 1.9 0.7 3.2 1.9 3.2 0.6 0.7 0.4 0.4 0.8 0.1 2.7 0.5 0.9 1.4 1.7 2.6 3.8 1.5 1 2.2-0.2 3.6-1.8 1.9-0.7 2 0.2 1.5-0.7 2-1.4 1.8-1.6 0.7-1.2 0.9-0.6 0.8-0.9 6.1-9.5 1.6-1.6 2.7-2.1 0.1-0.2z" id="PKBA" name="Baluchistan">
  </path>
  <path d="M569.7 654.1l-6.4-3.1-3.5-2.1-0.9-0.7-1.1-1.1-3.5-5.2-0.8-1.8-3.5-10.4-0.2-1.2-0.1-0.5-0.3-0.5-0.5-0.7-0.3-0.5-0.1-0.5 0-2.2 0-0.4-0.3-0.5-0.4-0.6-0.7-0.6-0.5-0.2-0.4-0.2-0.9-0.8-1.2-2.8-1.6-0.4-5.3-0.7-0.3-0.1-0.2-0.2-0.1-0.3 0-0.4 0-0.3-0.1-0.3-0.2-0.2-0.3-0.2-0.3-0.2-1.4-0.4-1.6-0.2-1.4 0-0.7 0-6 2.6-2.9-4.6-0.1-0.3 0-0.4 0-0.5 0.2-0.4 0.3-0.4 0.4-0.3 0.3-0.2 2.1-0.8 0.9-0.5 0.5-0.3 0.4-0.4 1.4-1.9 1.3-2.2 3.1-7.3 0.3-1.1-0.1-0.5-0.2-0.3-0.1-0.2-0.6-0.6-0.4-0.3-0.1-0.2-0.1-0.2 0-0.2-0.1-0.5 0.1-0.8 0.3-1.6 0.4-1.1 0.3-0.8 0.3-0.3 0.2-0.2 1.5-1.2 0.8-0.7 1.2-1.5 2.8-4.5 0.7-0.8 0.4-0.4 0.4-0.3 0.8-0.3 0.3-0.3 0.4-0.5 0.7-1.3 2-9.6 0-1.1 0-0.7-0.2-0.2-0.3-0.1-0.2 0-0.3 0.1-0.2 0.1-0.3 0.2-0.4 0.3-0.3 0.4-0.2 0.2-0.2 0.1-0.2 0-0.2-0.1-0.2-0.2-1.1-1.8-0.1-0.5-0.1-0.7 0.2-1.6 0.1-1-0.1-0.6-0.1-0.3-0.1-0.3-0.2-0.2-0.4-0.4-0.4-0.3-0.3-0.1-0.6-0.2-2.4-0.2-0.3-0.1-0.3-0.2-0.2-0.2-0.1-0.4-0.1-0.7 1.7-8-0.1-2.1 0-1.9 0.2-0.8 0.2-0.8 0.7-1.1 0.3-0.3 0.2-0.2 0.2-0.2 1-0.5 1.1-0.4 3.4-0.5 1.2-1.1 1.8-2.9 0.3-0.3 1.4-0.9 1-0.9 0.5-0.6 0.6-1 2.6-6.9 3-6.1 0.8-2.4 0-1.6 0-0.6 0.3-1.3 0.2-0.7 0.3-0.5 0.8-0.9 0.7-0.5 0.4-0.5 1.4-2.9 0.3-1.2 0.1-0.8-0.2-0.4-0.3-0.1-0.3-0.2-0.7-0.1-0.6 0-0.2 0.1-0.2 0-0.4 0.2-0.2 0.2-0.2 0.2-0.2 0.2-0.5 1-0.2 0.2-0.2 0-0.2 0-0.1-0.2-0.1-0.2 0-0.2-0.1-0.5 0.1-1.3-0.1-0.3-0.1-0.3-0.3-0.1-0.6-0.3-0.2-0.2-0.3-0.3 0.1-0.5 0.1-0.5 0.4-0.9 1.1-4 0.5-3.5 0.6-1.8 4.8-8.3 0.4-0.7 0.1-0.6-0.1-0.5-0.1-0.3-0.6-1-0.1-0.3 0-0.5 0.1-0.9 0.4-1.8 0.4-0.9 0.4-0.5 0.3-0.2 1.4-0.1 0.3 0 0.2-0.2 4.6-6.4 0.3-0.1 1.1-0.1 0.3-0.2 0.3-0.4 0.1-0.6-0.1-0.9-0.6-1.9 0.7-13 0.2 0.4 0.2 0.1 0.3 0 0.3-0.2 0.5-1 0-0.3 0-0.5 0-0.5-0.4-1.3-0.1-1.1 0-0.3 0.1-0.3 0.3-0.3 2-1.1 1-0.3 1.3-0.6 0.5-0.2 0.3 0 2.5-0.2 0.3-0.1 0.2-0.7-0.4-2.9 0.9 0.1 0.6-0.3 0.1-0.1 0.1-0.3 0.1-0.5 0.2-0.4 0.3-0.5 0.7-0.9 0.4-0.3 0.5-0.1 0.9 0.1 0.4 0 0.9-0.1 0.4-0.2 0.5-0.3 1.3-1.1 0.6-0.2 0.6 0 1 0.3 1.9 0.8 0.6 0.2 0.8 0.2 0.5-0.1 2.5-1.1 0.8-0.2 0.4-0.1 0.4 0.1 0.3 0.2 0.3 0.2 0.6 0.7 0.5 0.3 1 0.5 0.9-1.7 1.3-1.3 0.2-0.4 0-0.4 0-0.3-0.2-0.5 0.5-2 0.1-0.3 0.3-0.3 0.9-0.2 0.7-0.5 0.3-0.3 0.2-0.3 0.2-0.8 0.2-1.7-0.1-0.4-0.5-1.5 0.1-0.4 0.2-0.3 0.5-0.2 0.3-0.2 0-0.3-0.3-0.3-0.7-0.9-0.2-0.4-0.6-1.1 2.8-7.3 0.1-0.6-0.1-0.4-0.2-1.1 0-0.9 0.3-0.8 1-1.5 2.5-4.9 0.3-1.3 0.6-2.7 0.5-1.2 0.8-1 0.9-0.9 0.8-0.9 1-2.8 0.8-1.1 2.1-2.1 0.3-0.6 0.1-0.5 0-1.3 0.2-1 0.3-0.8 0.5-0.8 2-2.3 0.6-0.4 1.6-0.9 0.5-0.4 0.7-1 0.5-1.4 0.6-2.7 0.2-0.8 1.2-1.8 0.2-0.7 0.1-0.6 0-1.4 0.3-1.1 0.6-1.1 2.1-2.9 0.5-1 0.4-1.2 0.1-4.6-0.3-0.7-0.2-0.2-0.1-0.2-0.1-0.5 0-0.3-0.2-0.3-0.4-0.2-0.5 0-0.3 0.1-0.2 0.2-0.2 0.4-0.1 0.2-0.1 0.2-0.1 0.1-0.3 0.1-0.3 0.1-0.2 0.2-0.1 0.2-0.2 0.5-0.1 0.3-0.3 0.3-0.2 0.1-0.3 0-0.2-0.2-0.3-0.4-0.3-0.6-0.2-0.9 0.8-2.8 0.1-1.2-0.2-0.3-0.2-0.2-0.3-0.1-0.2 0-2.5 0.5-0.4 0-0.5-0.1-0.6-0.3-0.4-0.4-0.2-0.6-0.2-1.9-0.6-2.3-0.1-0.6 0-1.3-0.2-1.3-2-4.2-0.1-0.7 0.1-0.3 0.2-0.1 0.6-0.3 0.6-0.6 0.2-1 0.4-4.9 0.3-1.1 0.3-0.9 1.4-2.2 0.4-0.5 0.5-0.3 0.6-0.3 0.9-0.5 0.6-0.3 3.6-1.5 0.2 0 0.1 0 0.4 0.3 0.3 0.2 0.7 0.2 0.2 0.1 0.1 0.1 0.3 0.2 0.4 0.1 0.6-0.4 0.5-0.1 0.4-0.1 0.4 0 0.5 0 0.7-0.4 0.6-0.2 0.6 0 0.7-0.2 0.4-0.2 0.4-0.3 0.7-1.1 0.2-0.6 0.1-0.4 0-0.3-0.1-0.4-0.1-0.3-0.3-0.3-0.2-0.1-0.3 0-0.2 0.1-0.2 0-0.2 0-0.1-0.3 0-0.6 0.6-3-0.1-0.3-0.5-0.6-0.4-1-0.1-0.2 0-0.2 0-0.4 0-0.2-0.1-0.4-0.1-0.2-0.1-0.2-0.3-0.2-0.3-0.5-0.1-0.9 0.3-1.5 0.2-0.5 0.5-0.4 0.4 0.4 0.2 0.4 0.4 0.3 0.4 0.3 1.6 0.8 0.5 0.1 0.4 0 2.3-0.8 0.4 0.1 1.4 0.9 0.7 0.7 0.4 0.5 0.2 0.4 0.1 0.5 0 2 0.1 0.5 0.2 0.4 0.3 0.7 0.5 0.8 1 1.3 0.6 0.6 0.5 0.4 2.7 1.2 0.6-0.8 0-1.4 0.1-1.1 0.4-1.3 0.5-0.7 0.6-0.7 0.6-0.9 0.2-1.3-0.2-1.5-0.5-0.9-0.8-0.8-0.8-1 0.4 0-0.9-0.7-0.3-1.1 0.3-1.1 0.7-1 0.5-1-0.2-1.1 0.1-1.3 1-1.4 3.1-1.6 0.9-0.3 1.6 0.1 0.5-0.1 0.5-0.3 0.2-0.5 0.3-0.3 0.6-0.2-0.3-0.8 0-0.6 0.3-0.5 0.5-0.7 0.3-0.4 0.2-0.9 0.3-0.5 2.4-1.8 0.5-0.7 0.1-1.4-0.1-0.9 0-0.7 1-1.9 0.2-3.5 0.2-0.9 1.2-2.7 0.3-0.5 0.3-0.3 0.6-2 0.6-0.6 1.2-0.4 0.5-0.4 1.2-1.5 0.2-0.1 1.5 0.7 2.2 0.2 1 0.2 0.9 0.5 0.6-0.5 0.7-0.2 0.7 0.2 0.6 0.5 0.4-2.6-0.8-6.5 0.8-2.5 0.8-0.4 5.3-1.2 1-0.5 1.8-1.6 1.8-1.3 2-0.6 2.4-0.1 0.9 0.1 0.9 2.1 0.5 1.7 0.4 0.5 0.4 0.4 0.3 0.1 2.5 0.3 1 0.3 0.7 0.3 0.4 0.3 0.1 0.3 0 0.2-0.2 0.3-0.2 0.1-0.5 0.2-0.3 0.3-0.7 0.8-0.2 0.3 0 0.3-0.1 0.4 0.2 0.3 0.2 0.3 1.3 1 0.4 0.3 0.4 0.1 0.8-0.2 0.7-0.2 0.2-0.1 0.2-0.2 0.3-0.3 0.3-0.4 0.4-1 0.3-0.4 0.2-0.2 0.7-0.2 0.2-0.1 0.1-0.1 0-0.2-0.1-0.5 0-0.1 0.1-0.3 0.1-0.2 1.2-1.3 0.3-0.2 0.4-0.2 0.3 0.1 0.3 0.3 0.3 0.2 0.3 0.4 0.1 0.3 0 0.2-0.3 0.8-0.1 0.3-0.1 0.2 0.1 0.3 0.2 0.3 1 1.1 1.3-0.1 0.2 0.1 0.2 0.4 0.1 0.4 0 0.2 0 1-0.1 0.2-0.1 0.3-0.2 0.1-0.4 0.4-0.3 0.4 0.1 0.2 0.2 0.2 0.2 0.1 0.2 0.1 0.3 0 0.3-0.1 0.3-0.2 0.4 0 0.4 0.2 0.4 0.3 0.2 0.2 0 0.3-0.1 0.2-0.1 0.2-0.2 0.2-0.2 0.2-0.4 0.3-0.4 0.1-0.3 0.3-0.2 0.4-0.2 1.1 0.1 0.5 0.2 0.3 0.3 0.1 0.4 0 1.2-0.1 0.3 0 0.6 0.5 0.3 0.1 0.4 0 0.7-0.1 0.4 0.1 0.1 0.1 0 0.3-0.1 0.2 0 0.8-5.3 2.8-1.2 1.6-0.3 1.9 0.7 1.7 0.9 1.3 1.1 1 1.4 0.2 1.3-0.2 1.2-0.6 0.9-0.8 1.9-1.1 2.1-0.8 1.1-0.3 0.9 0 1.1 0.4 0.7 0.6 0.7 0.9 0.6 1.1 0.4 1.3-0.1 1-0.4 0.9-0.2 0.8 0.4 0.6 0.7 0.5 1.5 0.8 1.2 0.3 1-0.3 0.2-0.2 0.1-0.1 0.1-0.2 0.7-0.8 1.7-1.9 0.4-0.5 2.1-5.1 0.6-0.9 1.5-1.6 0.4-0.8 0-0.8-0.5-0.6-2.1-1.7-1.8-1.9-0.8-0.8-0.7-0.5-4.5-2-0.5-0.4 1-0.4 2.7 0.2 1.3-0.9 1.4-1.2 1.7-0.7 1-0.7 1.3-0.5 0.3-0.3 0.1-0.3 0.1-0.3 0-0.2 0.2-0.5 0.4-0.6 1.6-2.4 0.1-0.2 0-0.2-0.2-0.3-0.1-0.3 0.1-0.7 0.3-0.4 0.3-0.2 0.4 0 0.3-0.1 0.4 0.1 0.6 0.5 0.2 0 0.3 0 0.5 0 0.4-0.3 0.3-0.3 1-1.8 0.3-0.3 0.3-0.2 0.4-0.1 1-0.5 0.5-0.3 0.4 0 0.3 0.2 0.2 0.3 0.6 0.2 3.4 6.6 0.2 2.2-0.9 5 0.5 1.8 0.7 1 0.4 1.1 0.2 1.2 0.1 1.3-0.3 0.9-1 2.2-0.1 0.6 0.1 0.4-0.3 0.9 0.2 0.5 1.6 1.4 0.6 0.9 0.6 1.2 0.4 1.2 0.1 1.1-0.2 0.6-0.4 0.2-0.3 0.2-0.2 0.4 0 0.7 0.4 2.2 0.2 0.5 0.1 0.5 0 0.7-0.3 0.2-0.1 0-0.4 0.1-0.5 0.4-0.6 2-0.6 0.8-0.5 0.8 0.1 1.2 0.6 1 0.7 0.8 0.2 0.7-0.1 0.7-0.2 0.5-0.2 0.7 0.1 1.2 0.2 1.3 0.1 1.4-0.2 0.1-0.4 0.2-0.1 0.1-0.3 0.1-0.2 0 0.1 0.6 0.1 0.1 0.3 0 0.3 0 0.1 0 0.3-0.1 0-0.1 0.5-0.1 0.3 0 0 0.2 0.1 0.4 0 0.5 0.2 0.3 1.1 0.7 0.5 0.4 0.3 0.7 0 0.8-0.3 0.8-0.3 0.5 0.1 0.7-1.3 1.3 1 1.4 1.8 1.2 3.4 1.5 1.7 1.1 0.6 1 0.7 0.4 1.1 0.7 0.9 0.1 0.4-0.1 0-0.1 1-0.5 0.2-0.1 0.5-0.1 0.8-0.1 1.9-0.1 1 0.3 1 0.5 0.5 0.4 0.2 0.4 0.2 0.3 0.1 0.1 0.9 1.6 0.3 0.5 18.8 9.7-0.1 0.1-0.5 0.8 0.5 1.2 0.8 1 0.9 0.7 1.2 0.2 1.1-0.3 1.8-1.1 1.1-0.1 0.9 0.5 1.7 1.7 0.9 0.5 1.1 0 3-0.5 1.1-0.3 1.1-0.9 0.5-1 0.2-1.1 0.6-1.3 1-1 1-0.3 0.7 0.7 0.3 1.5-0.4 1.4-1.4 2.8-0.5 1.5 0.1 1.4 0.4 2.7-0.1 1.4-0.5 1.1-0.6 1.2-0.4 1.2 0.2 1.3 1.7 4.6 1.5 1.8 2 0.7 2.1-0.1 2-0.6 2.2-0.2 3.9 2 2.3-0.3 2.4-0.9 1.8-0.2 1.8 0.7 2.1 1.7 1.9 1.2 3.9 1 1.9 1.1 3.8 3.2 1.6 1.3 1.5 1.9 0.3 1.5-0.5 1.3-1.8 2.1-0.5 1.1-0.6 2.2-0.2 0.8-1.7-0.2-0.8 0.2-1.3 0.4-1.7 0.9-1.3 1.2 0.1 1.6-0.8-0.1-1.2-0.4-0.5 0.2-0.6 0.6-0.5 0.3-0.5-0.1-3.4-1.3-1 0.2 0.4 1.9-0.6 0.1-1.4-0.2-0.5 0.3-0.4 0.7-0.3 0.5-0.3 0.5-0.7 0.4-1.4 0.1-1.2-0.1-1.1 0.2-0.9 1.1-2.5-0.9-1 1.5-0.5 2.3-1 1.7-1.2 0.2-3.6-0.7-1.6 3-0.7 0.6-0.9 0.3-4.3 3.3-0.8 0.9-0.6 1.1-0.2 1.5 0 0.8-0.1 0.3-0.2 0.2-0.5 0.7-0.1 0.3-0.1 0.8-0.1 0.3-0.2 0.1-0.4 0.2-0.2 0.1-0.6 1.1-0.1 0.2 0.5 0.7 3.2 5.8 1.6 6.2 1.7 2.7 0.1 1.2-0.3 1.2-0.6 1.1-1 1.1-0.6 1.2-2.2 5.6-0.4 1.5 0 3-0.9 2.6-0.2 1.3 0.2 1.3 0.3 0.9 0.5 0.8 0.7 1 0.9 0.4 2.5-0.5 1.1 0.1 0.8 0.5 1.1 0.9 0.5 0.6-3.3 1.8-1.2 0.9-0.8 1.2-0.1 1.3-0.8 0.8-0.8 1.1-0.9 0.9-1.1 0.4-1.2 0-1.1 0.2-0.9 0.4-1 0.9-0.6 1.2-0.3 0.9-0.4 0.5-1.2-0.1-1.5-0.4-0.6-0.1-0.7 0.2-0.6 0.4-0.5 0.6-0.3 0.6 0.4 1.2-0.7 1.2-1.1 0.9-1.1 0.3-0.2 0.3 0.5 1.3 0.1 0.4-0.5 0.5-0.8 0.7-0.5 0.4-1.1 1.8-1 0.8-0.4 0.5-0.3 1.3-0.9 0.6-0.1 0.6-0.2 0.9-0.5 0.3-1.3 0.3-1.2 0.6-0.8 0.6-0.8 0.7-0.8 1-0.6 1.3 0.1 1.1 0.1 1.2-0.2 1.6-0.7 0.8-2.3 0.7-0.4 0.5-0.4 0.8-2.8 4.1-0.6 0.4-0.7 0.1-0.9-0.3 0.1 0.4 0.1 1 0.1 0.4-1-0.1-1.1 0.6-0.9 0.9-0.4 1.1-0.1 0.2 2.7 1.5 1.2 1.7 1.2 2.8 0.8 2.8-0.1 0.9-0.1 1-9.3 7.9-2.2 1.2-10.2 2.3-9.7 4.6-0.8 0.9-2.4 7.9-2.4 7.9-2.9 9.5-3.1 6-2.8 5.3-4.4 8.5-3.4 4.8-1.5 2.4-1.8 4.4-0.7 1-0.9 0.6-7.3 3.8-6.4 3.4-7.4 3.9-8.1 4.2-1.5 1.1-4.2 5.1-1.3 2.7-3.3 12.8-1.1 3-1.6 2.8-2.2 2.3-6.9 5.7-4.5 5.9-0.6 1.3-0.3 1.1-0.6 7.8-0.4 1-0.7 0.6-9 2.7-7.8 2.5-4.7 0.4-4.5-0.4-4.8 0.4-4.8 1-4.3 1.5-6.9 3.4-6.3 3.2-4.7 1.1-3.9-0.6-2.9-2-2.1-3.1-1.8-4.1-0.1-1.2 0.2-2.3-0.5-1.3-0.7-0.8-1.5-1.3-1.9-2.2-1.4-1.1-1.6-0.8-1.6-0.6-1.2-0.1-1.1 0.3-2.2 0.8-2.1 0.4-1 0.3-1 0.7-3.2 3.5-3.8 2.8-0.6 0.6z" id="PKPB" name="Punjab">
  </path>
  <path d="M569.7 654.1l-4.9 5.1-0.6 1.1-4.2 12.2-1.3 1.9-4.8 4.7-3.3 5.5-6.6 6.3-3.6 2.5-5.1 5.2-2.3 4-1.5 4.7-1.2 7.8-1.2 7.5 0.4 2.5 1.8 2 8.7 3.6 2.3 1.6 4 3.6 2.4 0.9 13.5-0.5 2.1 0.5 2.1 1.2 1.6 2 0.2 2.3-0.3 5.2 0.2 2.4-0.2 1.1-0.5 1.3-0.3 1.2 0.1 1.3 0.4 2.5-0.3 2.3-0.8 2.3-3 5-0.3 1.1 0 2.2-0.5 3.2 0 1 1.1 3.1 1.7 3 2.2 2.7 2.4 2 1 1.3 1.1 3.4 0.9 1.5 0.8 0.6 2.2 0.8 3.2 0.7 6.6-0.2 2.2-0.4 2.1-1 2.1-0.6 2.3 0.5 1.2 1.6 0.2 2.6-0.3 5.4-0.3 7.2 0.4 2.1 0.9 1.3 2.3 2.5 0.4 1.5 0.3 1.5 0.6 1.2 1.9 2.2 3.5 3.1 1 1.2 0.6 1.5 1.9 8.5 1.2 3.4 1.6 3.3 3.4 5.3 1.9 5.4 1.1 1.7 0.4 0.6-1.2 0.9-3.7 1.8-0.8 1.5-0.4 1.9 0.1 1.7 1.1 1 0.2 0.4 0.1 0.3-0.1 0.4-0.2 0.5-0.1 1.2-0.1 0.5 0 0.5 0.1 0.4 0.1 0.5 1.3 0.7 2.2 0.4 2 0.6 0.4 1.6-0.5 0.5-2.7 1-0.6 0.7-0.4 0.7-0.6 0.4-1.1 0-1.2-0.5-1.1-0.1-1 0.3-3.5 2.4-0.8 1.1 0.2 1 0.7 1.1-0.3 0.4-1 0.2-1.2 0.4-2.1 1.1-1.1 0.3-7.5-0.6-2.1-1-1-0.9-0.4-0.9-0.3-2.4-0.5-2.2 0.1-0.7 0.3-0.4 0.9-0.6 0.4-0.6-0.7-1.5-2.4-0.1-5.8 1.4-2.6 1.9-1 0.3-3.1 0.2-1 0.5-2.1 1.5-1.1 0.3-1.2 0-3.2 1.1-2 0.2-0.6 0.4-0.6 1-1.4 3.8-0.6 1.1-2 1.8-2.5 0.5-11.4 0.2-3-0.4-2.5-1.2-4.4-4.7-1.6-0.8-15.9-0.4-4.1 1.6-2.3 0.3-1-0.2-3.2-1.6-1.3-0.4-1.1 0.2-2.3 1.3-1.5 0.6-1-0.2-0.8-0.8-1.1-1.9-0.4-0.5-0.5-0.4-0.5-0.2-0.8 0-0.3 0.4-0.1 0.5-0.1 0.5-1.8 3.3-0.6 0.4-1-0.8-0.4-3.6-0.8-1.3-2.9-0.1-1.2 2.6 0 4.9 0 6.5-0.1 8.5-4.3 0-5.6-0.1-6.5 0-2.6 0.4-1.8 1.3 0-0.5 0-0.6-0.2-0.5-0.4-0.2-0.7 0.1 0 0.5 0.2 0.7 0.1 0.4-0.5 0.8-0.7 0.7-0.8 0.4-0.8-0.4-0.3-0.6-0.1-0.5-0.2-0.2-0.6 0.1-0.5 0.4-0.1 0.6 0 0.5-0.1 0.4 0.1 0.1 0.3 0.2 0.1 0.3-0.2 0.2-0.2 0-0.6-0.1-0.1 0-0.4 0.3-1 0.4-0.5 0.3-1.3 2.1 0 0.1 0-0.1-1.5-3.8 0 1.9 0 0.6 0.2 0.4 0.5 0.8 0.1 0.3-0.3 1.2-1 2.4-0.3 1.2 0.1 1.1 0.6 1.8 0.1 1.1-0.4 0.1-1.1-0.8-1.6-1.6-0.2 1.5-0.9 0-1.1-0.9-0.5-1.2 0.2-0.5 0.8-0.6 0.2-0.2-0.1-1.1 0.1-0.4 0.4-1 0.3-0.2 0.8 0 0-0.4-0.8-0.7-0.8-0.9-0.8-1.3-0.3-1.4 0.5-1.6 0.1-0.7-0.9 0.1-1.4-0.9-0.6-0.2 1.6 5.3 0.7 1.4-1 2.3-0.6 1.1-0.7 0.4-0.3-0.4-0.2-0.7-0.2-0.7 0-0.5-0.3-0.4-0.7 0.1-0.5 0.3-0.1 0.2-0.5-0.2-0.7-0.2-0.5-0.4-0.2-0.7-0.2-0.4-0.5-0.1-0.5 0.1-0.4-0.2-0.3-0.6 0.1-0.8-0.3-0.5-0.5-0.1-0.4 0.3-0.9 0.8-0.2-0.9-0.1-2.3-0.4-0.5-0.4 1.3-0.5 4.1-0.5 0.9-1.6-0.3-1.6-0.5-3.1-1.3 0.7 0.5 0.6 0.7 0.1 0.9-0.6 0.8-1 0.2-1.2-0.1-2.1-0.5-0.5 0-0.5 0-0.4-0.1-0.1-0.5 0.1-0.8 0.2-0.5 0.2-0.5 0.3-0.6 0.4-3.4 0.3-0.8 0-0.4-0.2 0-0.1-0.1 0-0.1 0-0.2-0.7 1-0.1 2.6-0.4 1.1-0.8 0.4-0.9-0.3-0.5-0.7-0.1-1.2-0.8 0.8-0.5-0.3-0.4-0.7-0.6-0.6-0.8 0-0.2 0.4 0.4 0.7 0.6 0.6-3.2-0.8-0.7-0.5 0.6-0.1 0.4 0.1 0.4-0.1 0.5-0.3 0.5-0.5 0.6-1.4 0.5-0.6-0.5 0.2-0.6 0.5-0.7 0.3-0.5-0.2-0.1-0.6 0.1-1 0.4-1.3-2.4-0.5-0.7-0.4 1-2.1 0.5-0.6 0.8 0.2 1.6-1 0.5-0.6 0.2-1-1.3 1.2-1.2-0.2-1.2-0.6-1.5-0.4-3.2 0.3-1.6-0.3-0.8-0.9-0.2-2-0.6-1.6-1.5-2.6-0.2-0.8-0.2-0.8 0-3-0.2-0.5-0.5-0.7 0.2-0.4 0.3-0.7 0.2-0.3-0.4-1.6 1.2-0.8 1.7-0.2 1.4 0.1-1.1-0.6-1-0.2-2.3 0-0.7-0.7 0.1-1.6 0.8-2.8-0.4 0.5-0.4 0.3-0.8 0.5-0.1-1.6-0.6-1.4-0.9-1.3-1.1-1.2 1.1-1.1-0.2-0.4-1.3-0.2-0.5-0.7-0.3-0.9-0.2-0.9-0.1-0.9 0.9 0.4 1 0.1 1.1-0.1 0.9-0.4-1.6-1-0.9-0.4-1-0.3-1 0.1-0.7 0.3-0.5-0.2-0.1-1.2 0.4-1.8 1-1.5 1.4-1.4 1.4-1 1.6-0.8 0.1-0.5-0.6-0.9-0.7-0.5-0.5 0-0.6 0.4-2 0.4-0.5-0.2-0.3-1.3-0.4-0.6-0.4-0.5-0.5-0.2-1 0.1-0.6 0.2-0.6 0.1-1.1-0.4-0.4 0.4 0.5 1.4-1-0.5-2.3-1.7-1-0.3-1-0.5-0.8-0.7-0.5-0.6-0.4 0 0 1.1 0.2 0.5 0.2 0.5-1.3-0.2-1.1-0.7-1-0.9-1.2-0.8-1.6-0.1-1.5 0.6-1.4 0.2-1.3-0.7-0.6 0.3-2.9 0.3-1.4 0.6-0.7 0.1-1.4-0.5 0.1-1.3 1.2-1.2 1.5-0.8 8.9-7.3 0.6-0.4 0.4-0.1 0.3-0.1 2.2-0.2 0.8-0.3 0.7-0.4 0.8-0.6 1.4-1.4 1.1-1.6 0.5-1 0.4-1 0-0.5-0.1-1.1 0.1-0.4 0-0.3 0.3-0.6 0.5-0.8 2-2.3 1.6-1.4 1.1-0.9 0.3-0.5 0.4-0.6 1.4-3.7 0.2-0.8 0.1-0.6-0.1-0.6-0.2-1.3 0-0.4 0.1-0.6 0.3-0.8 2.9-5.2 0.4-0.5 1.5-0.9 0.5-0.4 0.4-0.5 0.3-1 0.9-1.6 2-2.5 1.8-2 0.8-1.2 2.8-7.7 0.6-2.2 0.3-1.9 0-1.7-0.4-3.2 0-1.2 1-5.6-0.2-1.7-0.6-2.2-14.4-26.8-0.4-1.3-0.6-2.8-0.4-3.1-0.1-5.1-0.4-26.5-0.7-6.1 0.1-2.2 0.4-2.9 2.1-9.2 0.3-2.1 0.4-1.2 0.7-1.6 3.8-6.7 3.9-5.1 2.7-6.5 0.6-1.1 2.2-1.2 6.4-0.9 7.2-1.9 13.6-6.2 2.5-3.8 1.7-1.9 12.3-9.6 1-1.1 2.5-1.8 4.9-2.1 0.4-0.2 0.3-0.3 0.2-0.1 0.2-0.3 2.8-4.6 0.4-0.5 0.7-0.7 0.5-0.3 0.3-0.1 1.6-0.5 5.8-0.8 9.6 0.6 26.7-1.2 7.5-0.2 6-2.6 0.7 0 1.4 0 1.6 0.2 1.4 0.4 0.3 0.2 0.3 0.2 0.2 0.2 0.1 0.3 0 0.3 0 0.4 0.1 0.3 0.2 0.2 0.3 0.1 5.3 0.7 1.6 0.4 1.2 2.8 0.9 0.8 0.4 0.2 0.5 0.2 0.7 0.6 0.4 0.6 0.3 0.5 0 0.4 0 2.2 0.1 0.5 0.3 0.5 0.5 0.7 0.3 0.5 0.1 0.5 0.2 1.2 3.5 10.4 0.8 1.8 3.5 5.2 1.1 1.1 0.9 0.7 3.5 2.1 6.4 3.1z m-157.8 239l0.8 0.8 1.3 0.1 2.5-0.9 1.1 0.7 0.4 0.2-1.1 0.5-0.3 0.8-0.3 0.8-1.6 0.4-0.9-0.4-0.9-0.9-0.5-0.7-0.2-0.4-0.3-1z" id="PKSD" name="Sind">
  </path>
  <path d="M852.2 210.8l-0.7-0.4-2 0-3.7 0.8-5.2 0.2-19.8-4-14.2-5.2-3.5-0.6-3.6 0.3-3.6 1.5-4.2 3.1-1.4 0.8-8.9 1.5-0.8 0.4-1.6 1.4-0.1 1.6 0.4 1.7 0 2-0.8 1.3-2.7 1.9-0.9 1.6-0.1 2.5-0.3 0.9-0.5 0.5-1.3 0.8-0.6 0.4-1 1.5-0.2 1.8 0.4 1.6 1.2 1.3 1.4 0.8 1.4 0.6 1.4 0.2 1.6-0.2 1.7 0.2 0.9 1.1 1.3 3.4 0.8 1.3 0.4 1.5-0.2 1.4-1 1-3.4 1.8-1.3 1.3-0.5 2.1 0.5 2 1.3 1.8 1.7 1.2 1.7 0.4 3.8-1 1.2 0.1 2.9 1 2.1-0.1 2.1-0.5 2-0.1 1.8 1.3 0.7 2.2-0.6 2.2-1.3 1.9-1.5 1.5-1.9 1.4-2 0.9-6.1 1.1-1.3 1.2-1.9 3.5-0.3 0.8-0.3 0.8-0.2 0.9-0.1 2 0.1 1 0.3 1 0.5 1 2.7 2.3 3.5 1.9 3 2.4 0.9 3.7-1.2 5.2-1.7 4.9-0.5 1.1-0.6 0.9-0.8 0.8-0.9 0.7-2.1 0.9-0.9 0.6-0.6 1.2-0.2 2.9 0.8 2.1 1.5 1.6 2.1 1.4 1.8 1.9 3.1 4.3 2.1 1.2 5.2 0.9 1.6 1 0.6 1.5 0.1 3.3 0.7 3.5-0.2 1.4-0.6 1.2-0.3 0.5-18.8-9.7-0.3-0.5-0.9-1.6-0.1-0.1-0.2-0.3-0.2-0.4-0.5-0.4-1-0.5-1-0.3-1.9 0.1-0.8 0.1-0.5 0.1-0.2 0.1-1 0.5 0 0.1-0.4 0.1-0.9-0.1-1.1-0.7-0.7-0.4-0.6-1-1.7-1.1-3.4-1.5-1.8-1.2-1-1.4 1.3-1.3-0.1-0.7 0.3-0.5 0.3-0.8 0-0.8-0.3-0.7-0.5-0.4-1.1-0.7-0.2-0.3 0-0.5-0.1-0.4 0-0.2-0.3 0-0.5 0.1 0 0.1-0.3 0.1-0.1 0-0.3 0-0.3 0-0.1-0.1-0.1-0.6 0.2 0 0.3-0.1 0.1-0.1 0.4-0.2 0.2-0.1-0.1-1.4-0.2-1.3-0.1-1.2 0.2-0.7 0.2-0.5 0.1-0.7-0.2-0.7-0.7-0.8-0.6-1-0.1-1.2 0.5-0.8 0.6-0.8 0.6-2 0.5-0.4 0.4-0.1 0.1 0 0.3-0.2 0-0.7-0.1-0.5-0.2-0.5-0.4-2.2 0-0.7 0.2-0.4 0.3-0.2 0.4-0.2 0.2-0.6-0.1-1.1-0.4-1.2-0.6-1.2-0.6-0.9-1.6-1.4-0.2-0.5 0.3-0.9-0.1-0.4 0.1-0.6 1-2.2 0.3-0.9-0.1-1.3-0.2-1.2-0.4-1.1-0.7-1-0.5-1.8 0.9-5-0.2-2.2-3.4-6.6 0-0.1-0.6-4-1-4.1 0-0.1 0-0.7 0-0.4 0-0.2 0.1-2.2-0.1-1.1-0.9-4.8-0.8-0.9-0.3-0.7-0.4-0.9-2.3-3.4-0.4-1.4 0.3-0.3 0.6-1.2 0.3-0.8 0.3-1.2 0-0.2 0-0.4 0-2 0.1-0.3 0.1-0.2 0.3-0.6 0.1-0.2 0-0.2 0.1-0.2-0.1-1.8 0-0.3 0.1-0.3 0.3-0.5 0.1-0.2 0-0.3 0-0.6 0-0.3 0.1-0.3 0.1-0.3 0.3-0.2 0.5-0.3 1.7-0.3 0.2 0 0.1 0 0.3 0 1.1 0.2 0.2 0 0.1 0 0.2 0 0.1 0 1-0.5 0.7-0.4 0.5-0.2 0.5 0 0.5 0 0.1 0 0.4 0 0.3 0.2 0 0.1 0.1 0.2 0.1 0.3 0.2 0.5 0.2 0.1 0.1 0.2 0.3 0 0.1-0.1 0.2-0.3 0.5-1 1.2-3.3 0-0.4 0-0.3-0.1-0.4-0.4-0.7-0.1-0.2-0.1-0.4 0.1-0.3 0.1-0.3 1.7-2.6 0.3-0.5 0.4-1.5 0.4-0.8 0.5-0.5 0.5-0.5 1.2-0.9 0.6-0.4 0.4-0.2 1.1 0.1 0.4-0.1 0.3-0.1 0.4-0.2 1.1-0.8 0.2-0.1 1.2-0.2 2.4 0.2 0.2-0.1 0.1-0.1 1-0.8 0.2-0.1 0.3-0.1 0.4-0.4 0.1-0.1 0.2-0.2 0.1-0.1 0.4-0.7 0.3-0.3 0.2-0.2 0.1-0.1 0.3-0.3 0.5-0.1 0.9-0.1 0.3-0.1 0.3-0.1 0.6-0.2 0.7-0.3 0.2-0.2 0.1-0.1 0.3-0.4 0.1-0.1 0.3-1.2 0.2-0.6 0.2-0.2 0.2-0.4 0.6-0.4 0.1-0.1 0.2-0.2 0.2-0.6 0.2-0.6-0.1-1 0.1-0.6 0.2-0.5 0.4-0.7 0.6-0.5 0.4-0.3 0.3-0.2 0.1-0.2 0-0.1 0.1-0.2-0.2-0.5-0.3-0.4-0.3-0.2-0.6-0.3-0.1-0.1-0.1 0-0.1-0.2-0.1 0 0-0.1-0.1-0.2-0.1-0.2 0-0.3 0.1-0.4 0.5-1.1 0.2-0.4 0.5-0.5 0.6-0.5 1.4-0.5 0.7 0.1 2.1 0 0.1 0 5.1 0.8 0.1 0 4.6-0.5 3.4-1.2 2.9-0.8 1.4 0.2 1.8 1 1.6 1.7 1.4 2.4 2.2 5 1.2 2.2 1.5 1.5 7.7 4.6 3.8 1.6 3.4 1 2.7 0 1.7-0.2 1.3-0.5 2.2-0.5 1.1-0.6 2-1.8 0.9-0.3 0.1 0 1.2 0.6 2.6 2.7 1.3 1.9 1 2.2 0.3 2.3-0.2 2.2-1.4 3.2-0.1 0.7z" id="PKJK" name="Azad Kashmir">
  </path>
  <path d="M723.3 272.6l2.7-0.5 1.2-0.6 0.6-0.7 0.5-0.5 0.9-0.6 0.6-0.3 0.5-0.1 2.1-0.3 1.2-0.6 0.3-0.2 0.1-0.2 0.5-0.6 0.5 0.4 4.5 2 0.7 0.5 0.8 0.8 1.8 1.9 2.1 1.7 0.5 0.6 0 0.8-0.4 0.8-1.5 1.6-0.6 0.9-2.1 5.1-0.4 0.5-1.7 1.9-0.7 0.8-0.1 0.2-0.1 0.1-0.2 0.2-1 0.3-1.2-0.3-1.5-0.8-0.7-0.5-0.4-0.6 0.2-0.8 0.4-0.9 0.1-1-0.4-1.3-0.6-1.1-0.7-0.9-0.7-0.6-1.1-0.4-0.9 0-1.1 0.3-2.1 0.8-1.9 1.1-0.9 0.8-1.2 0.6-1.3 0.2-1.4-0.2-1.1-1-0.9-1.3-0.7-1.7 0.3-1.9 1.2-1.6 5.3-2.8z" id="PKIS" name="F.C.T.">
  </path>
 </g>
 <g id="points">
  <circle class="24.36252333286551|61.65460831634206" cx="90.9" cy="874.7" id="0">
  </circle>
  <circle class="29.706506591608576|69.75690445961233" cx="545.5" cy="537.9" id="1">
  </circle>
  <circle class="36.386485665037405|76.23874137422855" cx="909.1" cy="90.4" id="2">
  </circle>
 </g>
 <g id="label_points">
  <circle class="Northern Areas" cx="831.4" cy="117.4" id="PKGB">
  </circle>
  <circle class="K.P." cx="698.5" cy="189.2" id="PKKP">
  </circle>
  <circle class="Baluchistan" cx="287.3" cy="669.3" id="PKBA">
  </circle>
  <circle class="Punjab" cx="692.9" cy="446.6" id="PKPB">
  </circle>
  <circle class="Sind" cx="488.2" cy="792.9" id="PKSD">
  </circle>
  <circle class="Azad Kashmir" cx="771.8" cy="264.4" id="PKJK">
  </circle>
  <circle class="F.C.T." cx="736.8" cy="276.1" id="PKIS">
  </circle>
 </g>
</svg>